<?xml version="1.0" encoding="utf-8"?>
<!-- Generator: Adobe Illustrator 22.0.1, SVG Export Plug-In . SVG Version: 6.00 Build 0)  -->
<svg version="1.1" id="Ebene_1" xmlns="http://www.w3.org/2000/svg" x="0px" y="0px"
     viewBox="0 0 255 255" style="enable-background:new 0 0 255 255;" xml:space="preserve">
<g>
	<path d="M62.6,47.1C48.4,71.7,34.3,96.3,20,120.8c-1.2,2.1-1.1,3.6,0.1,5.8c14.6,24.9,29,49.9,43.5,74.9c1.4,2.5,2.7,5.1,4.1,7.5
		c2.2,3.8,4.9,3.8,7.5,0.3c0.6-0.8,1.2-1.5,2.5-3c-1.2,4,0.1,5,3.1,5.8c2.9,0.8,5.5,2.5,8,4.2c2.5,1.8,1.7,3.8-0.4,5.5
		c-1.8,1.5-3.5,3.1-5.1,4.5c2.2,1.6,4.2,2.4,5.2,3.9c0.7,1,0.8,3.5,0.1,4.3c-3.7,4.4-8.7,7.6-14,9.4c-6,2-12.4,2.7-18.7,3.9
		c-4.4,0.8-8.9,1.4-13.3,2.1c-0.1-0.3-0.1-0.7-0.2-1c2.9-0.8,5.7-1.6,9-2.5c-1.5-0.2-2.6-0.4-3.7-0.6c0-0.2-0.1-0.5-0.1-0.7
		c4.3-1.2,8.5-2.5,12.8-3.6c4-1.1,4.3-1.7,2.2-5.1c-0.4-0.7-0.2-1.8-0.4-2.6c-0.2-0.8-0.5-1.5-0.5-1.4c-0.4-2.7-0.2-4.8-1-6.3
		c-19.2-33.4-38.5-66.7-57.9-100c-1.4-2.4-0.6-3.8,0.5-5.7C18,95.1,32.6,69.8,47.2,44.5c5.2-9,10.5-17.9,15.6-27
		c1.3-2.3,2.8-3.2,5.3-3c2.4,0.2,4.8,0.1,7.1,0c0.6,0,1.2-0.9,1.8-1.4c-0.5-0.6-0.8-1.4-1.4-1.6c-3.4-1.3-6.8-2.4-10.2-3.8
		c21-3.7,28.7-1.3,34.2,10.5c5.1,1.1,4.6-3.6,6.9-6.5c-2-0.9-3.7-1.7-6.3-2.8c2.9-0.7,5-1.4,7.2-1.7c5.4-0.6,10.9-1.3,16.3-1.6
		c4.8-0.2,5,0.1,6.6,4.9c-6.6,0.5-13.7-0.5-19.5,5.3c3.8,0.9,6.8,1.6,10.4,2.5c-2.1,2.7-3.1,4.9-7,3.8c-3.9-1-8.1,2.5-10.4,7.8
		c2.2-0.2,4-0.2,5.8-0.6c3.4-0.7,6.6-1.8,9.9,0.3c1.4,0.9,3.9,2,4.6-1.5c0.1-0.4,1.1-0.9,1.8-1c3.7-0.5,5.5-3.3,7.6-5.9
		c3.6-4.4,7.4-8.7,11.2-13c0.8-0.9,1.9-2,2.9-2.1c2-0.2,4.5-0.3,6,0.7c0.9,0.6,0.6,3.5,0.2,5.3c-0.5,2.4-1.8,4.7-2.2,7.1
		c-0.1,0.7,1.4,1.9,2.4,2.6c1.1,0.7,2.5,1.1,4.5,1.8c-1.4,1.1-1.7,1.6-2.2,1.7c-6.2,1.7-9.4,5.6-8.1,11.5c0.6,2.5-1.2,1.4-1.2,1.7
		c-1-1-2.1-2.2-3.6-3.8c-0.2-1.4-0.5-3.6-0.9-5.9c-8-1.6-11.4,4.8-16.4,9.7c0.3-1.5,0.4-2.1,0.6-2.9c-1.1,0.4-2.1,0.7-3.7,1.3
		c0.7-2,1.2-3.4,1.7-4.9c-5.1,0.7-9.9,1.1-14.5,2.1c-3.2,0.7-6.1,2.4-9.3,3.2c-1.4,0.3-3.4-0.1-4.5-0.9c-0.7-0.5-0.7-2.6-0.4-3.8
		c0.8-2.5,2-4.8,3-7.2c0.3-0.8,0.5-1.6,0.7-2.5c-0.4-0.2-0.9-0.5-1.3-0.7c-1.2,1.9-2.1,4.2-3.8,5.6c-2.6,2.2-5.4,4.3-8.5,5.7
		c-3.6,1.6-7.6,2.2-11.4,3.6c-2.3,0.9-4.3,2.3-6.5,3.5L62.6,47.1z M57.9,41.2c-3.6-0.9-5.3-0.2-6.8,2.5C37.5,67.6,23.9,91.5,9.7,115
		c-3.9,6.4-3.9,10.7,0,17.2c15.8,26.2,30.8,52.9,46,79.4c1.3,2.3,2.9,2.8,5.7,1.7c-0.4-1.3-0.6-2.6-1.2-3.7
		c-15.9-27.6-31.8-55.1-47.8-82.6c-1.3-2.2-1.6-4-0.2-6.5c12.7-21.8,25.4-43.7,38-65.6C52.7,50.6,55.1,46.1,57.9,41.2z M74,18
		c-5.9-1.8-7.4-1.2-10.2,3.8c-1.7,3-3.6,5.9-5.3,8.9c-1.6,2.9-3.1,5.8-4.7,8.8c1.6,0.1,3.1-0.1,3.2-0.7c1.1-4.5,5.4-4,8.4-5.5
		c1.3-0.6,3.2-1.1,3.6-2.1C71,26.9,72.4,22.5,74,18z M77.4,29.2c5.2,0.5,12.6-3.9,14-8.3c0.4-1.3,0.8-3.2,0.2-4
		c-1.2-1.5-2.9-2.8-4.7-3.4c-0.8-0.3-2.8,0.9-3.4,2c-2,3.7-3.7,7.5-5.4,11.3C77.8,27.6,77.6,28.4,77.4,29.2z M67.2,238.9
		c5.3-1.6,10.6-1.8,14.3-6.2C74.9,228.4,69.7,228.9,67.2,238.9z M57.8,215.1c2.3,4,4.5,7.8,6.8,11.7c4-3.4,1.7-6.2,0.2-9.2
		C63.3,214.6,61.1,214.1,57.8,215.1z M82.9,220.6c0-0.5-0.1-1-0.1-1.6c-1.5-0.4-3.4-1.5-4.3-0.9c-1.9,1.2-3.3,3.3-4.9,5
		c0.4,0.5,0.7,1,1.1,1.4C77.4,223.2,80.2,221.9,82.9,220.6z M145.6,20.1c-0.4-0.5-0.8-1.1-1.2-1.6c-1.3,1-2.6,2-3.8,3.1
		c-0.1,0.1,0.8,1.2,1.2,1.8C143.1,22.3,144.4,21.2,145.6,20.1z"/>
    <path d="M59.6,133.9c2.4,0,4.5,0,6.4,0c0.2,0.3,0.3,0.4,0.3,0.5c-0.7,6.2,2.7,9.4,7.6,12.6c2.6,1.7,3.3,6.3,5.1,9.5
		c0.6,1.1,1.7,2.4,2.7,2.6c6.1,0.9,6.6,0.4,6.4-5.9c-0.2-5.7-2.6-10.5-6.9-14.3c-0.9-0.8-1.8-1.7-2.8-2.6
		c5.6-7.1,12.9-10.3,21.7-10.7c3.1-0.1,6.3-0.2,9.4,0c3.2,0.3,4.1-1.1,4-4.1c-0.2-4.1,0-8.2,0-12.5c5.3,0,10.3,0,15.6,0
		c0,2.2,0,4.5,0,7.1c-2.5,0-4.9,0-8,0c0,2.9,0,5.4,0,8c0,0.4,0.1,1,0.3,1c3.5,1.1,7,2.3,10.6,3c1,0.2,2.4-1.1,3.4-2
		c3.4-3.1,6.6-6.4,9.9-9.6c0.1-0.1,0.2-0.1,0.2-0.1c3.7,3.7,7.4,7.4,11,11.1c-0.1,0.1-0.5,0.5-0.9,1c-3.7,4-3.8,4.1-7.8,0.2
		c-1.6-1.6-2.9-1.6-4.4,0c-0.8,0.9-1.9,1.6-3.2,2.7c1.4,1.1,2.4,2,3.4,2.8c10,7.6,16.4,17.3,18,29.9c0.3,2.2,1.6,2.5,3.4,2.5
		c6.4-0.1,12.7,0.1,19.1-0.1c3-0.1,3.9,1.1,3.8,4c-0.1,2.7-0.4,4.1-3.6,4.1c-11.5-0.2-23,0-34.5-0.2c-1,0-2.9-1.3-3-2.1
		c-0.3-9.4-6.4-14.4-13.7-18.5c-8.5-4.7-17.7-4.4-26.9-4.1c-0.6,0-1.7,0.6-1.8,0.9c-0.1,2.3-0.4,4.8,0.2,7c0.2,0.7,2.7,1.1,4.2,1.1
		c6.4,0.2,13.1-1,18.9,2.5c3.3,2,6.6,4.4,9,7.4c2.6,3.3,0.9,5.8-3.3,5.8c-23.1,0-46.2,0-69.3,0c-9.6,0-15.9-5.4-17.5-14.8
		c-0.9-5.2,2.3-12.4,7.7-14.9c4.4-2,5.6-4.7,5-9C59.2,135.5,59.5,134.9,59.6,133.9z"/>
    <path d="M182.4,30.1C172,34,162.3,38.3,151,38.1c3.1-2.6,6-5,8.9-7.4c0.5-0.4,1.1-0.8,1.3-1.3c2.7-5.6,5.3-11.2,7.9-16.9
		c0.1-0.2,0.1-0.5,0.2-1.2c-1.9-0.3-3.8-0.6-5.9-0.9c0.4-0.6,0.8-1.3,1.3-2.2c-1.3-0.7-2.4-1.3-3.6-1.9c0-0.2,0-0.4,0.1-0.6
		c5.6,0,11.6-1.2,16.7,0.3c6.2,1.9,11.5,5.8,15.1,12.1c19.3,34.1,39,67.9,58.7,101.7c1.7,2.9,1.6,5,0,7.8
		c-17.1,29.4-34.2,58.9-51.2,88.4c-2.9,5-5.6,10.2-8.7,15.1c-2.2,3.5-5.6,5.9-9.4,7.5c-4.6,1.9-9.2,3.8-13.9,5.5
		c-3.5,1.3-6.4-0.4-9.1-2.7c1.4,0.3,2.9,0.6,4.3,1c0.1-0.3,0.2-0.6,0.2-0.8c-0.9-0.3-1.7-0.6-3.2-1.1c7.5-3.9,16.4-4.2,22.2-11.2
		c-3.6-2.4-6.8-4.4-9.9-6.6c-3.1-2.1-3.4-5-0.1-6.7c3.2-1.7,7-2.3,10.4-3.6c1.2-0.4,2.6-1,3.1-2c16.3-28.1,32.5-56.2,48.8-84.2
		c1.2-2,1.2-3.3,0-5.3c-17.1-29.3-34-58.8-51-88.2C183.7,31.8,183,31,182.4,30.1z M191,21.1c-4.8,2.8-2.2,5.7-0.8,8.1
		c17.7,30.7,35.6,61.3,53.3,91.9c0.7,1.2,0.7,3.5,0.1,4.7c-5.7,10.2-11.5,20.2-17.4,30.3c-11.4,19.6-22.8,39.2-34,58.8
		c-1.2,2.1-2.5,2.7-4.6,2.9c-2.2,0.2-4.4,0.9-7.3,1.5c4.2,2.6,7.4,4.5,10.7,6.6c0.7-1.1,1.5-2.1,2.1-3.1
		c17.5-30.1,34.8-60.3,52.4-90.3c3.5-6,5.9-11.2,0.1-17c-0.6-0.6-0.8-1.5-1.2-2.3c-14.9-25.8-29.8-51.7-44.8-77.5
		C196.9,31,194,26.2,191,21.1z M169.1,29.2c3.3-1.3,5.3-1.9,7.1-2.8c3.6-1.8,6.8-4.1,7.6-8.5c0.5-3-1.6-4-3.7-4.8
		c-1.7-0.6-3.6-0.9-4.7,1.5c-1.5,3.4-3.3,6.8-4.9,10.2C170,25.8,169.7,27,169.1,29.2z"/>
    <path d="M171.8,84.4c-8.3-1.1-16-0.2-22.2,5.5c-1.9,1.7-3.1,4.5-3.7,7c-0.5,2.2-1.2,2.9-3.3,2.9c-6.4-0.1-12.7-0.1-19.1,0
		c-1.9,0-3.1-0.3-3.1-2.6c0-2.5,1.6-2.3,3.3-2.3c3.4,0,6.8,0.2,10.1-0.1c1-0.1,2.7-1.2,2.8-2c1.2-8.3,6-14.2,12.4-18.9
		c-1.8-4.1-1.9-4.1-6.9-0.6c-0.7-0.8-1.5-1.8-2.6-3.1c2.3-2.1,4.4-4.2,7.6-7.1c1.5,2,3.1,3.7,4.4,5.7c2.5,3.9,5.9,1.7,8.7,0.9
		c1-0.3,1.3-3.4,1.8-4.8c-2.1-2.1-6.8-0.2-5.2-5.2c2.9,0,5.8,0,9.2,0c0,2.2,0.2,4.4,0,6.6c-0.2,2.7,1,3.6,3.5,3.5c2,0,4,0.1,6,0.1
		c4.9,0,8.8,2.2,12.2,5.8c-3.4,3.1-6.3,6.6-5.9,11.5c0.1,1.1,1.1,2.7,2.1,3c1.7,0.6,3.4,0.1,3.9-2.2c0.6-3.4,2.8-5.5,5.6-7.4
		c1.4-1,1.8-3.5,2.9-5.8c0.5,0,1.7,0,3.4,0c-0.7,3.6,1,5.6,4.1,7.5c3.7,2.2,4.4,6.4,3.3,10.3c-1.1,3.7-3.8,6.4-8,6.7
		c-4.1,0.3-8.2,0.5-12.3,0.5c-11.5,0.1-23,0-35.7,0c0.9-2.2,1.2-4.5,2.4-5.3c3-1.8,6.3-3,9.6-4.2c1.2-0.4,2.7-0.1,4.1-0.1
		C172.4,90.2,172.4,90.2,171.8,84.4z"/>
    <path d="M87,242.2c3.9-8.7,7.7-17.5,11.7-26.2c1.1-2.3,3-3.7,6-3.6c4.4,0.1,8.9-1,13.3-0.6c4.7,0.4,9.7,1.2,13.9,3.2
		c6.2,2.9,6,5.9,0.1,9.7c-2.7,1.7-5.5,3.1-9.1,5.1c2.8,4.1,5.7,8.4,8.2,12.1c2.1-1.8,3.6-2.8,4.8-4.1c1-1.1,1.9-2.3,2.6-3.6
		c2-3.8,4-7.7,5.9-11.5c0.8-1.5,1.5-3,2.4-5.1c-2.6-0.3-4.6-0.5-6.9-0.7c0.5-0.8,1-1.6,1.6-2.5c-1.4-0.5-2.5-0.9-4.7-1.8
		c1.9-0.3,2.8-0.6,3.6-0.6c3.9,0,8-0.8,11.7,0.1c6.1,1.5,12.6,2.9,15.4,9.7c0.3,0.8,0.8,1.9,0.5,2.4c-2.3,4-2.6,9.3-7.6,11.5
		c-2.7,1.2-4.9,3.9-8.4,2.5c-3.1,4.3-8.1,4-12.4,5c-4,1-8.1,1.2-13,1.9c1.4-1.3,2.1-1.9,2.7-2.4c-0.1-0.4-0.1-0.6-0.2-0.6
		c-6.3-0.5-8.1-7.3-13.2-9.2c-4.2,3.4-8.3,6.7-12.6,10.1c-0.4-3.9,4.2-6.7,2.1-11.2c4.3-3.7,7.4-8.8,8.3-14.9
		c-2.1-1.3-3.7-2.2-5.6-3.3c-2,4.2-4,8.3-6,12.5c-1.9,4.1-3.7,8.2-5.7,12.2c-1.1,2.2-2.9,3.8-5.5,1.7c-1,0.9-2,1.8-3,2.7
		C87.6,242.5,87.3,242.3,87,242.2z M155.9,218.4c-1.3,1.1-2.5,1.8-3.1,2.8c-2,3.4-3.7,6.9-5.5,10.4c-0.3,0.7-0.4,1.5-0.5,2.3
		c0.8,0.1,1.8,0.6,2.4,0.3c3.3-1.6,6.9-3,9.5-5.5c1.5-1.4,1.9-4.7,1.8-7.1C160.3,220.6,157.7,219.7,155.9,218.4z M128.8,220.7
		c-7.1-3.3-7.5-4.1-11.5,5.5C121.5,224.2,124.8,222.6,128.8,220.7z"/>
    <path d="M113,201.4c-0.8,2.1-1.6,4.4-2.4,6.6c-2.9-1.3-5-2.2-7.2-3.1C104.2,199.3,107.7,196.4,113,201.4z"/>
</g>
</svg>
