<?xml version="1.0" encoding="utf-8"?>
<!-- Generator: Adobe Illustrator 22.0.1, SVG Export Plug-In . SVG Version: 6.00 Build 0)  -->
<svg version="1.1" id="Ebene_1" xmlns="http://www.w3.org/2000/svg" x="0px" y="0px"
     viewBox="0 0 550 220" style="enable-background:new 0 0 550 220;" xml:space="preserve">
<style type="text/css">
	.st0{fill:#AE2F34;}
	.st1{fill:#040404;}
</style>
    <g id="logo">
	<path class="st1" d="M342.1,54.7c-8.9,0.1-17.2,2-24.9,6.8c12.8,2.1,22.4,8,26.2,20.9c-7.4-5-15.3-7-24.2-4.7c1.4,0.7,2.6,1.3,3.7,2
		c7.6,4.9,12,12,13.4,20.8c1.9,12.3-1.7,23.1-9.6,32.5c-7.9,9.5-18.3,15.1-30,18.4c-38,10.7-77.5-11.7-87.5-49.9
		c-10.9-41.7,16.5-80.4,55.1-87.7c31.8-6,63.6,10.2,77.3,39.5C341.7,53.8,341.8,54.2,342.1,54.7z M319.5,41.8
		c-0.1-0.2-0.2-0.3-0.2-0.4c-0.2-0.2-0.3-0.3-0.5-0.5c-15.2-14.3-33.1-19.7-53.5-15.5c-26.1,5.3-44.8,27-46.9,53.6
		c-1.1,13.7,2.2,26.4,10.1,37.6c13.2,18.6,31.4,27.2,54.1,25.7c5.5-0.4,10.8-1.9,15.6-4.7c6.4-3.7,10-9.1,10.3-16.5
		c0.2-6-1.9-11-7.1-14.2c-1.1-0.7-2.4-1-3.6-1.6c-0.1,0.1-0.1,0.2-0.2,0.3c1.5,2.2,2.8,4.5,3.1,7.2c0.3,3-0.5,6-1.9,7.4
		c-1.3-3.9-3.8-6.7-7.4-8.5c-3.5-1.8-7.2-2.6-11.3-2.2c1.3,1.7,1.8,3.4,1.7,5.2c-1.5-0.6-2.9-1.3-4.4-1.7c-2.9-0.8-5.9-0.6-8.9,0.1
		c-5.3,1.2-9.8,3.8-13.8,7.4c-0.3,0.3-0.8,0.6-1.2,0.6c-3-0.7-5.9-1.6-8.1-4.1c-0.2-0.3-0.6-0.5-1-0.5c-5.4-0.6-9.7-3.3-13.7-6.7
		c-1.3-1.1-1.3-1.1-0.3-2.4c3.6-5.1,7.7-9.7,12.2-14.1c1.8-1.7,3.4-3.6,5-5.5c2-2.3,2.6-5,1.8-7.9c-0.2-0.8,0-1.4,0.5-2
		c5.9-8,13.6-13.8,22-18.8c0.3-0.2,0.6-0.4,1.1-0.7c-1.4-0.4-2.6-0.6-3.9-1c8.6-7.2,14.9-15.9,19.3-26.3c6.4,5.7,8.1,13.2,8.6,21.2
		C304,47.5,311.4,43.9,319.5,41.8z M265.8,80c-0.1-0.1-0.2-0.1-0.3-0.2c-2.4,1.7-4.9,3.4-7.3,5.1c-1.3,0.9-1.5,2.5-1.8,4
		c2.1,0,4.2,0.3,5.7-1.3C264,85.4,265.1,82.8,265.8,80z"/>
        <path class="st0" d="M312.6,74.2c7.9-2.4,15-2.1,19.7-1.4c-4.2-3-9.9-5.8-16.5-5.6c-6.1,0.3-10.5,3.1-11.3,1.8
		c-0.9-1.4,3.5-4.9,8.9-13c2-3.1,3.5-5.7,4.3-7.4c-20.4,15.3-26.4,17.4-27.7,16.1c-1.2-1.2,1.7-4.8,1.3-11.3
		c-0.3-4.4-1.9-7.8-3.2-10.1c0,0-3.9,10.5-14.1,20.2c-5.7,5.5-14.9,7.2-15.8,13.7c-0.3,1.9,0.1,4-1.3,7.1c-0.9,2-2,3.1-4.3,5.6
		c-3.1,3.3-6.1,6.8-9.2,10.1c-1.4,1.5-3.6,3.9-6.4,6.9c0.5,0.6,1.6,1.5,3.1,2c1.8,0.7,3.5,0.6,4.3,0.5c0,0,21.9-13.6,36.7-16.4
		c18.5-3.5,33.8-3.5,43.2-2.1c-2.3-2.3-5.9-5.2-10.7-6.7c-8.4-2.7-15.3,0.4-15.9-1.1C297,81.7,304.2,76.8,312.6,74.2z M262.1,87.6
		c-1.4,1.6-3.5,1.4-5.7,1.3c0.3-1.6,0.5-3.1,1.8-4c2.4-1.8,4.9-3.4,7.3-5.1c0.1,0.1,0.2,0.1,0.3,0.2C265.1,82.8,264,85.4,262.1,87.6
		z"/>
</g>
    <g id="lettering">
	<path class="st0" d="M47.2,176.2c0,7.7,0,15.4,0,23.2c-8.3,0-16.5,0-24.7,0c0-25.5,0-50.9,0-76.4c8.2,0,16.4,0,24.7,0
		c0,5.8,0,11.6,0,17.3c0.1,0.1,0.2,0.1,0.3,0.2c0.1-0.2,0.2-0.4,0.4-0.6c4.4-5.4,8.9-10.8,13.3-16.2c0.4-0.5,0.8-0.7,1.4-0.7
		c9.4,0,18.8,0,28.1,0c0.2,0,0.4,0,0.8,0c-1,1.2-1.8,2.4-2.7,3.5C80.9,136.8,73,147.1,65,157.4c-0.3,0.4-0.4,0.7-0.1,1.1
		c8.3,12.1,16.6,24.3,24.8,36.4c0.2,0.2,0.3,0.5,0.6,0.8c0.2-0.5,0.4-0.9,0.6-1.3c7.3-19.2,14.5-38.4,21.8-57.5
		c1.7-4.4,3.3-8.8,5-13.1c0.2-0.5,0.5-0.7,1.1-0.7c5.6,0,11.2,0,16.7,0c0.6,0,0.9,0.2,1.1,0.7c7.1,18.7,14.2,37.5,21.3,56.2
		c2.4,6.3,4.7,12.5,7.1,18.8c0.1,0.2,0.2,0.4,0.3,0.7c-8,0-16,0-24,0c-0.7-1.8-1.4-3.8-2.1-5.7c-0.5-1.4-0.2-1.2-1.7-1.2
		c-7,0-14,0-21.1,0c-0.7,0-1.1,0.2-1.3,0.9c-0.6,1.8-1.3,3.6-1.9,5.4c-0.2,0.5-0.4,0.6-0.9,0.6c-16.1,0-32.2,0-48.3,0
		c-0.6,0-0.8-0.3-1-0.7c-5.1-7.3-10.1-14.6-15.2-22c-0.2-0.3-0.4-0.5-0.5-0.7C47.3,176.2,47.3,176.2,47.2,176.2z M151.6,190.4
		c-0.1-0.4-0.2-0.6-0.3-0.8c-4.1-10.9-8.3-21.7-12.4-32.6c-3.1-8-6.1-16.1-9.2-24.1c-0.2-0.6-0.5-0.8-1.1-0.8c-0.9,0.1-1.9,0-2.8,0
		c-0.6,0-0.9,0.2-1.1,0.8c-1.9,5-3.8,10-5.7,15c-5.3,13.9-10.5,27.7-15.8,41.6c-0.1,0.3-0.2,0.6-0.3,1c0.9,0,1.8,0,2.6,0
		c0.5,0,0.8-0.2,1-0.7c0.6-1.5,1.2-3,1.7-4.6c0.2-0.4,0.4-0.6,0.9-0.6c12.2,0,24.4,0,36.5,0c0.5,0,0.7,0.2,0.8,0.6
		c0.5,1.5,1.1,3,1.7,4.5c0.1,0.2,0.4,0.6,0.6,0.6C149.6,190.5,150.5,190.4,151.6,190.4z M71.3,132.4c0-0.1-0.1-0.2-0.1-0.2
		c-0.9,0-1.8,0-2.6,0c-0.6,0-1,0.2-1.3,0.6c-9.9,12.3-19.9,24.6-29.8,36.8c-0.1,0.2-0.2,0.4-0.3,0.6c-0.1-0.1-0.2-0.2-0.3-0.2
		c0-12.6,0-25.1,0-37.7c-1,0-2,0-3,0c0,19.4,0,38.8,0,58.2c1,0,2,0,3,0c0-0.4,0-0.7,0-1c0-4.5,0-9.1,0-13.6c0-0.6,0.2-1.1,0.6-1.6
		c3.6-4.5,7.2-8.9,10.8-13.4c0.2-0.2,0.4-0.4,0.6-0.7c0.3,0.4,0.5,0.6,0.6,0.9c6.6,9.5,13.2,19.1,19.7,28.6c0.2,0.3,0.5,0.6,0.7,0.7
		c1.1,0.1,2.1,0,3.4,0c-7.5-11-15-21.9-22.4-32.8C57.7,149.2,64.5,140.8,71.3,132.4z"/>
        <path class="st0" d="M191.6,172.3c0,9,0,18.1,0,27.2c-8.1,0-16.2,0-24.4,0c0-25.4,0-50.9,0-76.4c0.3,0,0.5,0,0.8,0
		c6.2,0,12.4,0,18.6,0c0.6,0,0.8,0.2,1.1,0.6c6.4,9.4,12.7,18.8,19.1,28.1c0.1,0.2,0.2,0.3,0.4,0.6c0.2-0.3,0.4-0.5,0.6-0.8
		c6.3-9.3,12.6-18.6,18.9-27.9c0.3-0.5,0.7-0.7,1.3-0.7c6.1,0,12.3,0,18.4,0c0.3,0,0.5,0,0.8,0c0,25.5,0,51,0,76.5
		c-8.1,0-16.2,0-24.3,0c0-9.1,0-18.1,0-27.2c-0.1,0-0.1,0-0.2-0.1c-5.1,7.5-10.2,15-15.4,22.7c-5.2-7.6-10.4-15.2-15.6-22.7
		C191.7,172.3,191.6,172.3,191.6,172.3z M207.3,169.9c-0.2-0.3-0.4-0.5-0.5-0.7c-8-11.8-16.1-23.6-24.1-35.5c-0.8-1.2-1.6-1.8-3-1.6
		c-1.1,0.1-1.1,0-1.1,1.2c0,18.3,0,36.6,0,54.9c0,2.5,0,2.5,2.5,2.2c0.2,0,0.4-0.3,0.5-0.5c0.1-0.2,0-0.5,0-0.8
		c0-16.8,0-33.5,0-50.3c0-0.3,0-0.6,0-0.9c0.1,0,0.1,0,0.2,0c8.5,12.4,17,24.7,25.6,37.2c8.5-12.5,17-24.9,25.5-37.2
		c0.1,0,0.1,0,0.2,0.1c0,17.4,0,34.9,0,52.4c0.7,0,1.3,0,1.9,0c1.1,0,1.1,0,1.1-1.1c0-18.3,0-36.7,0-55c0-2.2,0-2.1-2.1-2.2
		c-0.7,0-1.1,0.2-1.5,0.8c-7.8,11.5-15.5,22.9-23.3,34.4C208.5,168.1,207.9,169,207.3,169.9z"/>
        <path class="st0" d="M289.3,123c0.3,0,0.6,0,0.9,0c6.2,0,12.3,0,18.5,0c0.6,0,0.9,0.2,1.2,0.6c6.3,9.3,12.6,18.6,18.9,27.9
		c0.2,0.3,0.4,0.5,0.6,0.9c0.2-0.3,0.4-0.5,0.6-0.8c6.3-9.3,12.6-18.6,18.9-28c0.3-0.5,0.6-0.6,1.2-0.6c6.2,0,12.3,0,18.5,0
		c0.3,0,0.5,0,0.8,0c0,25.5,0,51,0,76.5c-8.1,0-16.2,0-24.3,0c0-9.1,0-18.1,0-27.2c-0.1,0-0.1,0-0.2,0c-5.1,7.5-10.3,15.1-15.5,22.7
		c-5.2-7.6-10.4-15.1-15.7-22.8c0,9.2,0,18.3,0,27.4c-8.2,0-16.3,0-24.5,0C289.3,174,289.3,148.6,289.3,123z M303.7,138
		c0.1,0,0.1,0,0.2-0.1c8.5,12.4,17,24.7,25.6,37.2c8.5-12.5,17-24.8,25.5-37.2c0.1,0,0.1,0,0.2,0.1c0,17.5,0,34.9,0,52.4
		c0.7,0,1.2,0,1.8,0c1.2,0,1.2,0,1.2-1.2c0-18.4,0-36.8,0-55.2c0-1.9,0-1.9-1.9-2c-0.8,0-1.3,0.3-1.7,0.9
		c-7.3,10.8-14.6,21.6-22,32.5c-1,1.4-2,2.9-3,4.4c-0.2-0.3-0.4-0.6-0.6-0.8c-8-11.8-16-23.5-24-35.3c-0.8-1.2-1.6-1.8-3-1.6
		c-1.1,0.1-1.1,0-1.1,1.2c0,18.7,0,37.4,0,56.1c0,0.2,0,0.4,0,0.6c0.1,0.2,0.2,0.4,0.4,0.4c0.9,0,1.7,0,2.6,0
		C303.7,172.9,303.7,155.4,303.7,138z"/>
        <path class="st0" d="M503.5,123.1c8.1,0,16,0,24,0c0,25.5,0,50.9,0,76.4c-0.3,0-0.5,0-0.8,0c-6.2,0-12.4,0-18.6,0
		c-0.5,0-0.8-0.2-1.1-0.6c-6.7-9.3-13.3-18.7-20-28c-0.1-0.2-0.3-0.3-0.6-0.7c0,9.9,0,19.5,0,29.2c-8,0-16,0-23.9,0
		c0-25.5,0-50.9,0-76.5c0.3,0,0.6,0,0.8,0c6.1,0,12.2,0,18.3,0c0.6,0,1,0.2,1.3,0.7c6.7,9.3,13.4,18.6,20,28
		c0.1,0.2,0.3,0.4,0.5,0.7C503.5,142.5,503.5,132.8,503.5,123.1z M513.9,132.2c0,17.6,0,35.2,0,52.9c-0.2-0.3-0.3-0.4-0.4-0.5
		c-1.8-2.5-3.6-5-5.4-7.5c-10.5-14.8-21.1-29.5-31.6-44.3c-0.2-0.2-0.4-0.6-0.6-0.6c-0.9-0.1-1.9,0-2.8,0c0,19.5,0,38.8,0,58.2
		c1,0,2,0,3,0c0-17.6,0-35.2,0-52.9c0.3,0.3,0.4,0.5,0.5,0.7c6.9,9.7,13.9,19.4,20.8,29.1c5.4,7.5,10.7,15,16.1,22.6
		c0.2,0.2,0.4,0.5,0.7,0.5c0.9,0.1,1.8,0,2.7,0c0-19.5,0-38.8,0-58.2C515.9,132.2,515,132.2,513.9,132.2z"/>
        <path class="st0" d="M375.8,161.3c0.1-22.2,18.1-40.1,40.2-40.1c22.2,0,40.2,18.3,40.1,40.3c-0.1,22.2-18.1,40-40.2,40
		C393.7,201.4,375.7,183.4,375.8,161.3z M386.5,161.3c0,16.3,13.2,29.4,29.4,29.4c16.2,0,29.4-13.2,29.4-29.4
		c0-16.2-13.2-29.4-29.4-29.4C399.7,131.9,386.5,145.1,386.5,161.3z"/>
        <path class="st0" d="M281.2,199.5c-8.6,0-17.2,0-25.8,0c0-25.5,0-50.9,0-76.4c8.6,0,17.2,0,25.8,0
		C281.2,148.5,281.2,174,281.2,199.5z M269.8,161.3c0-9.1,0-18.2,0-27.3c0-1.9,0-1.9-1.9-1.9c-1.1,0-1.2,0-1.2,1.2
		c0,18.4,0,36.7,0,55.1c0,2,0,2,2.1,2.1c0.8,0,1-0.2,1-1C269.8,180.1,269.8,170.7,269.8,161.3z"/>
        <path class="st0" d="M145,181.8c-11.9,0-23.7,0-35.6,0c5.9-15.6,11.9-31.1,17.8-46.7C133.2,150.7,139.1,166.2,145,181.8z
		 M122,175.8c3.5,0,6.9,0,10.4,0c-1.7-4.5-3.4-8.9-5.2-13.5C125.4,166.9,123.7,171.3,122,175.8z"/>
        <path class="st0" d="M416,187.7c-14.5,0-26.4-11.8-26.4-26.3c0-14.5,11.8-26.4,26.4-26.4c14.5,0,26.3,11.8,26.3,26.4
		C442.3,175.8,430.5,187.7,416,187.7z M399.8,161.4c0,8.9,7.3,16.1,16.2,16.1c9-0.1,16.1-7.3,16-16.3c-0.1-8.7-7.3-15.9-16.1-15.9
		C407,145.3,399.8,152.5,399.8,161.4z"/>
</g>
</svg>
