<?xml version="1.0" encoding="utf-8"?>
<!-- Generator: Adobe Illustrator 22.0.1, SVG Export Plug-In . SVG Version: 6.00 Build 0)  -->
<svg version="1.1" id="Ebene_1" xmlns="http://www.w3.org/2000/svg" x="0px" y="0px"
     viewBox="0 0 790 222.7" style="enable-background:new 0 0 790 222.7;" xml:space="preserve">
<style type="text/css">
	.st0{fill:#AE3439;}
	.st1{fill:#040404;}
</style>
    <g>
	<path class="st0" d="M115.5,107.5c4.2-0.1,8.3,0.1,12.5-0.4c3.7-0.4,4.1,1.4,4,4.4c-0.1,5.9,0,11.8,1.1,18c5.3-6.5,10.7-13,16-19.4
		c1.1-1.4,2-2.9,4.3-2.9c12.3,0.1,24.6,0,37.9,0c-5,6.5-9.5,12.4-14,18.3c-6.7,8.7-13.4,17.4-20.1,26.1c-1,1.3-2.2,2.3-0.8,4.3
		c11,16,22,32.1,33.5,48.9c4-10.5,7.8-20.3,11.5-30.1c8.1-21.3,16.2-42.6,24.1-63.9c1-2.8,2.4-3.8,5.4-3.6c5.7,0.2,11.3,0.2,17,0
		c2.9-0.1,4,0.9,5,3.5c12,31.9,24.1,63.7,36.3,95.6c1.2,3.2,0.6,4-2.8,3.9c-7.7-0.2-15.3-0.3-23,0c-4.1,0.2-6.3-1-7-5
		c-0.6-3.7-2.7-5-6.6-4.8c-7.3,0.4-14.7,0.2-22,0c-3.1-0.1-5.1,0.6-5.6,4c-0.8,4.8-3.6,5.9-8.4,5.9c-18.3-0.3-36.6-0.3-55,0
		c-3.9,0.1-6-1.2-8.1-4.3c-5.7-8.7-11.7-17.2-17.7-25.8c-0.4,0.1-0.9,0.2-1.3,0.3c0,7,0,14,0,21.1c0,8.7,0,8.7-8.6,8.7
		c-6.8,0-13.7-0.1-20.5,0c-2.8,0.1-4.2-0.4-4.2-3.8c0.2-17.7,0.1-35.3,0.2-53c0.7-3.1,2.7-2.9,4.6-1.4c1.2,1,2.2,1.8,3.3,0.4
		c1.7-2.2,4.2-2.2,6.4-3.1c1.8,1.4,0.9,3.4,1,5.1c0.1,13.3,0,26.6,0.1,39.8c0,1.4-0.3,3.1,2,3.2c2.3,0,2.1-1.5,2.1-3.1
		c0-4-0.1-8,0-11.9c0.1-2.4-0.8-5,1-7.2c5-6,9.9-11.9,14.9-17.9c2.2,1.4,3.7,3.3,4.3,5.8c7.3,10.7,14.6,21.3,21.8,32.1
		c1.6,2.4,3.4,2.7,6.1,1.8c-8.5-12.4-16.8-24.6-25.2-36.8c-0.3-0.5-1.1-0.6-1.7-0.9c-0.3-2.2-1.8-4.2-1.3-6.6c0.7-2.5,2.7-4.1,4.2-6
		c7.1-8.9,14.3-17.8,21.6-26.9c-3.5-1.1-5.3,0.1-7.1,2.4c-6,7.7-12.2,15.3-18.5,22.8c-1.1,1.3-1.7,3.4-3.9,3.4
		c-2.7-0.8-3.8-3.4-5.8-5.1c-3.1-2.6-5.7-6.4-10.6-3.3c0-5.3,0.1-10.6-0.1-15.9c-0.1-1.6,1.4-4.6-1.9-4.6c-3.8-0.1-2,3.1-2.1,4.9
		c-0.3,5.3-0.2,10.6-0.3,15.9c-5.1,1-9.6,4.2-14.9,4c-0.1-9.7-0.1-19.4-0.3-29.1c0-1.7,0.8-3.6-0.9-5.1c-0.2-0.3-0.4-0.6-0.6-0.9
		l-0.3-0.1c5.3-1.2,10.5-3.5,15.8,0C113.7,109.7,114.5,107.9,115.5,107.5z M271.3,196.2c-0.2-0.4-0.4-0.8-0.5-1.3
		c-9.3-24.4-18.5-48.7-27.8-73.1c-0.7-1.9-1.8-2.4-3.7-2.4c-2.1,0-3.3,0.5-4.1,2.7c-2.6,7.3-5.5,14.6-8.3,21.9
		c-6.3,16.6-12.7,33.2-18.9,49.8c-0.4,1.1-2.4,2.7-0.1,3.7c2,0.8,3.5-0.2,4-2.4c0.1-0.3,0.3-0.6,0.4-0.9c0.6-3.5,2.7-4.2,6-4.2
		c12.5,0.2,25,0.1,37.4,0.1c4.9,0,10.2-1.1,11.2,6.1c0.2,1.7,1.9,1.5,3.3,1.5C271.1,197.5,271.3,197,271.3,196.2z"/>
        <path class="st1" d="M167.8,72.9c-3.3,0.8-4.5-1.4-6.2-3.2c-3.5-3.5-5.5-8.9-10.2-10.6c-6.9-2.5-6.2-9.1-8.9-13.9
		c-0.5-0.8-0.4-2-1.8-1.8c-1.2,2.3-0.2,5-1.3,8.6c-0.9-3.4-2.8-5.1-1.2-7.6c2.2-3.6,4.8-6.1,10.4-4.9c-3.5-3.7-3.5-7.1-2.3-10.5
		c1.7-4.5,6-2.6,9.3-3.1c-2-4.2-3.6-5.4-7-5.4c-7.1-0.1-12.3,3.1-16.1,9c-3.4,5.3-5.4,5.7-10.9,2.4c-0.9-0.5-2.4-2.2-2.8-0.8
		c-1.7,5.9-4.5,1.3-6.7,0.9c-2.2-0.5-3.8-2.9-6.7-2.5c1.3,1.9,2.4,3.6,3.4,5.2c0.1,0.4,0.3,0.8,0.4,1.1c-0.4,0-0.9,0-1.3,0.1
		c-6.2-2.4-12.3-3.6-18.7,0.3c2.4,2.7,6.7,2.6,8.8,6.5c-5.4-0.8-10.3-2.5-15.5-0.7c1.8,2.3,5.4,1.1,6.7,4.1
		c-3.4,0.4-6.7-0.9-9.9,0.6c0.3,2.2,4.4,1.5,2.9,3.9c-1.1,1.7-3.5,0.4-5.1-0.2c-4.6-1.8-8-5.5-9.3-9.8c-1.2-4.2-1-8.4-6.7-9.2
		c-1-0.2-1.9-2.2-2.6-3.5c-1.7-3.6-3.2-7.3-1.9-11.6c-0.9,0.2-1.4,0.2-1.9,0.3c-1.6,0.7-3.3,0.6-3.6-1.2c-0.2-1.8,1.9-1.5,3.1-1.7
		c2.5-0.6,5.2-0.7,8.8-1.2C51.2,7.9,39,11.6,31.9,20.6c-4.2,5.3-5.8,11.9-9.3,17.5c-7,11.2-7.8,23.8-8.8,36.4
		c-0.8,10.5,1.8,20.8,2.1,31.3c0.1,4.6,1.1,9.1,3.2,14c2-4,0-7.6,0.5-11c-0.3-2.7-0.9-5.4,1.3-8.3c0.8,3.2,0.5,5.7,0.4,8.2
		c0.1,2.8,0.5,5.5,1.6,8.6c2-9.3,1-18.9,6.9-27.2c0.8,2.2-0.3,4.4,1.4,6.1c4.1-4,4.4-10,8.5-13.5c0.4-0.4,0.9-0.7,1.3-1.1
		c0.5,0.8,0.2,1.4-0.5,2c-0.1,2.2-0.9,4.4,0.8,7.7c2.4-6.3,6.5-10.1,11-14.3c0.8,2.5-0.9,4.3,0.8,6.2c0.9-1.2,1.7-2.2,2.5-3.2
		c1.6-1.9,3-4.3,6-2c2.7,2,3.5,4.2,1.4,7.2c-1.5,2-2.2,4.2-1,6.9c0.5-0.5,1-0.7,1.2-1.1c1.1-1.5,2.5-2.8,4.1-1.3
		c1.7,1.6-0.7,2.4-1.4,3.5c-1.1,1.6-3.7,3.8-3.3,4.7c2.2,4.4,0.6,8.1-1.2,11.9c-0.5,1.1-0.6,3.4,0,3.8c3.5,2.2-3.7,8,3,8.9
		c-1.2,4.8,3.9,7.9,3.1,13c2.2-2.9,3.5-2.7,4.3,0.3c0.4,1.4,0.6,2.9,1,4.4c0.2,0.6,0.4,2.2,1.1,1.5c3.2-3.1,3.4,1,3.8,1.8
		c1.7,4.2,6.3,5,9.3,6.4c3.5,1.6,7.2,4.5,11.6,3.6c0.7-3.1,2.7-2.9,4.6-1.4c1.2,1,2.2,1.8,3.3,0.4c1.7-2.2,4.2-2.2,6.4-3.1
		c1.5-1.9,3.4-1.6,4.7-0.1c1.3,1.6-1.1,1.8-1.7,2.8c-1.8,3.4,1.6,1.5,2.4,2.3c3.7-0.3,7.5-0.8,11,0.9c2-0.4,3.5,0.5,4.8,2
		c2.2,1.4,3.7,3.3,4.3,5.8c1.5-0.9,0.5-2.6,1.1-3.8c-0.3-2.2-1.8-4.2-1.3-6.6c-1.2-1.4-2.4-2.9-3.6-4.3c-2.7-0.8-3.8-3.4-5.8-5.1
		c-3.1-2.6-5.7-6.4-10.6-3.3c-1.5,0.1-2.9,0.1-4.4,0.2c-5.1,1-9.6,4.2-14.9,4c-9.9-0.1-21-11.4-21.7-22.2
		c-0.4-5.7,0.3-11.1,3.5-16.2c2.3-3.6,5.9-5.1,9.3-6c3.2-0.9,4.3,3.8,7.2,5.1c2.6,1.2-0.9,2.7-0.3,4.1c5.3-1.2,10.5-3.5,15.8,0
		c1,0.7,1.8-1.1,2.9-1.5c-1-2.8-4-1.3-5.6-2.8c2.6-6.3,10.2-4.9,14.3-9.3c-1.2-0.4-2.5-1.3-3.3-1c-5.8,2.5-9.2-0.8-12.5-4.7
		c-1-1.2-2.8-1.8-4.2-2.5c-1-0.5-2.2-0.6-1.2-2.4c2.8-4.9,5.2-10,8-14.9c0.8-1.4,2-2.8,4.1-2.1c3.2,1.1,6.4,2.3,9.9,3.5
		c-2.9,2.8-7.9,1.2-10.1,6.6c5.8-3.1,10.6-1.5,15,0.6c3.1,1.4,4.8,4.9,8.2,6.3c4.9,2,9.8,3.6,12.1,9.5c1.1,2.9,4.3,2.4,6.8,0.5
		c2.2-1.7,2.1-8.7,1.3-6.1c-0.1,0.4-1.1,1.5-1.5,1.2c-0.5-0.4,0.3-3.6-0.3-3.3c-1.8,1.4-1.7,2-2.2,0.6c-0.2-0.5,1-3.8-0.3-2.8
		c-0.3,0.3-1.5,0.6-1.8,0.4c-0.4-0.3,1-3.8-0.7-2c-0.3,0.3-0.3-0.7-0.4-1.6c-0.1-0.6-0.3-1.1-0.1-1.3c0.5-0.6,1,0.1,1.5,0.3
		c0.6,0.2,1.8,0,1.5,0.2c-3.3,2,2.4,0.9,1.6,1.5c-2.5,2.1,2,0.7,3,0.9c0.7,0.1-4.9,2.2,1.9,0.8c0.6-0.1,0.6,1-0.1,1.4
		c-2.4,1.4,1.7,0.4,1.9,0.2c2.6-2.9,7-4.6,6.9-9.4C169.3,74.5,169.8,72.4,167.8,72.9z M108,99.2c1.4,1.5,1,3.4,0,4.4
		c-1.1,1.2-2.5-0.4-3.2-1.2c-1.7-1.9-3.1-4.1-5.4-7.3C103.7,95.9,106,97.1,108,99.2z M141.9,61.6l1-2.5l5.3,6.9L141.9,61.6z"/>
        <path class="st0" d="M530.5,174.4c-5.7,8.3-11.5,16.5-16.9,24.9c-2.3,3.6-3.5,4.3-6.1,0.2c-5.4-8.5-11.4-16.7-18.1-24.9
		c0,8.9,0,17.7,0,26.6c0,8.8,0,8.8-9,8.8c-6.8,0-13.7-0.1-20.5,0c-2.6,0.1-3.5-0.8-3.5-3.4c0.1-32,0.1-64,0-96c0-3,1.2-3.6,3.8-3.5
		c6.7,0.1,13.3,0.2,20,0c2.7-0.1,4.1,1,5.6,3.2c8,11.9,16.1,23.7,24.6,36.2c1.5-2.1,2.8-3.9,4-5.7c6.8-10.1,13.7-20.1,20.4-30.2
		c1.7-2.6,3.5-3.5,6.5-3.4c6.2,0.2,12.3,0.2,18.5,0c3.3-0.1,4.6,0.6,4.6,4.3c-0.1,31.5-0.1,63,0,94.5c0,3.4-1,4.2-4.3,4.2
		c-8-0.2-16-0.3-24,0c-3.7,0.1-4.9-0.8-4.8-4.6c0.3-10.2,0.1-20.5,0.1-30.7C531.1,174.6,530.8,174.5,530.5,174.4z M476.1,128.8
		c0.3-0.1,0.7-0.3,1-0.4c11.1,16.1,22.1,32.1,33.4,48.6c11.4-16.6,22.3-32.6,33.5-48.9c1.4,2.2,0.9,4,0.9,5.8c0,19.7,0,39.3,0.1,59
		c0,1.6-1.4,4.6,2.1,4.4c3-0.1,1.7-2.8,1.7-4.3c0.1-22.8,0.1-45.7,0-68.5c0-1.7,1.3-4.2-1.5-5c-2.5-0.7-3.4,1.5-4.5,3.1
		c-9.9,14.6-19.9,29.2-29.6,43.9c-2.2,3.3-3.2,3.1-5.2,0c-9.9-14.8-20-29.5-30-44.2c-1-1.5-1.9-3.3-4.2-2.8c-2.8,0.7-1.4,3-1.5,4.6
		c-0.1,23-0.1,46-0.1,69c0,0.7,0,1.3,0,2c0,1.2,0,2.3,1.7,2.4c1.9,0,2.2-1,2.2-2.6c0-1.2,0-2.3,0-3.5
		C476.1,170.4,476.1,149.6,476.1,128.8z"/>
        <path class="st0" d="M346.6,146.5c8.4-12.4,16.4-24,24.1-35.9c1.8-2.7,3.7-3.7,6.9-3.6c6.3,0.3,12.7,0.2,19,0
		c2.7-0.1,3.8,0.6,3.7,3.6c-0.1,31.8-0.1,63.6,0,95.5c0,3.2-1,4-4,3.9c-8.3-0.2-16.7-0.2-25,0c-3.2,0.1-3.9-1.1-3.9-4.1
		c0.1-10.4,0.1-20.8-1-31.5c-6.5,9.5-13,19-19.9,29.1c-6.9-10-13.6-19.6-20.2-29.3c-0.3,0.1-0.6,0.2-1,0.2c0,10-0.3,20.1,0.1,30.1
		c0.2,4.6-1.3,5.6-5.6,5.4c-8-0.4-16-0.2-24-0.1c-2.6,0-3.5-0.7-3.5-3.4c0.1-32.2,0.1-64.3,0-96.5c0-2.5,1-3.1,3.2-3
		c7.2,0.1,14.3,0.2,21.5,0c2.8-0.1,3.7,1.7,4.9,3.5C330.2,122.4,338.2,134.2,346.6,146.5z M346.6,177c11.4-16.6,22.3-32.6,33.9-49.5
		c0.1,2.4,0.3,3.5,0.3,4.6c0,16.5,0,33,0,49.5c0,4.5,0,9,0,13.5c0,1.3,0.3,2.2,1.9,2.3c1.6,0,2.1-0.7,2-2.1c0-0.8,0-1.7,0-2.5
		c0-22.8,0-45.7-0.1-68.5c0-1.6,1.2-3.9-1.2-4.8c-2.4-0.9-3.4,1.2-4.6,2.9c-7.6,11.3-15.3,22.6-22.9,33.9c-3,4.5-6.1,8.9-9.4,13.6
		c-0.9-1.3-1.5-1.9-1.9-2.6c-10.3-15.1-20.6-30.3-30.9-45.4c-1.1-1.6-2.1-3.1-4.3-2.5c-2.4,0.7-1.3,2.8-1.4,4.2
		c-0.1,23.3-0.1,46.7,0,70c0,1.4-1,3.6,1.8,3.7c3.2,0.2,2.3-2.2,2.3-3.8c0-17-0.1-34-0.2-51c0-4.7,0-9.3,0-14
		c0.4-0.1,0.8-0.1,1.1-0.2C324.1,144.3,335.1,160.3,346.6,177z"/>
        <path class="st0" d="M721.3,170.7c0,12.5-0.1,23.5,0.1,34.4c0.1,4-1.3,5.1-5.2,4.9c-7.7-0.3-15.3-0.2-23,0
		c-3.1,0.1-4.4-0.7-4.4-4.1c0.1-31.7,0.1-63.3,0-95c0-3.1,0.9-4,4-3.9c6.3,0.2,12.7,0.2,19,0c3-0.1,4.8,0.8,6.5,3.3
		c7.3,10.5,14.9,20.9,22.4,31.3c0.8,1.1,1.2,2.7,3.6,3.3c0-11.3,0.1-22.4-0.1-33.5c-0.1-3.5,0.8-4.6,4.4-4.5c8,0.3,16,0.2,24,0
		c2.8-0.1,3.7,0.7,3.7,3.6c-0.1,31.8-0.1,63.7,0,95.5c0,3.2-1.1,4.2-4.1,3.8c-0.2,0-0.3,0-0.5,0c-7.3-0.1-15.8,2.2-21.7-0.8
		c-5.8-3-9.1-11.1-13.4-17C731.9,185.5,727.1,178.7,721.3,170.7z M707.4,126.6c1.4,1.8,2,2.5,2.4,3.2c15.4,21.5,30.7,43.1,46.1,64.6
		c1.1,1.6,1.9,3.7,4.6,2.9c2.8-0.8,1.6-3,1.6-4.5c0.1-23,0.1-46,0-69c0-1.6,1.3-4.6-2.1-4.4c-3,0.2-1.6,2.8-1.7,4.3
		c-0.1,20.2,0,40.3-0.1,60.5c0,1.6,0.6,3.2-0.5,4.8c-1.8-0.6-2.3-2.4-3.2-3.6c-14.8-20.7-29.6-41.5-44.4-62.2
		c-0.7-0.9-1.3-1.9-2-2.8c-1-1.3-2.3-1.2-3.6-0.8c-1.3,0.4-0.9,1.6-0.9,2.5c0,24.2,0,48.3,0,72.5c0,1.3-0.3,2.7,1.8,2.8
		c2.4,0.1,2.2-1.5,2.2-3c0-6.3,0-12.7,0-19C707.4,159.6,707.4,143.8,707.4,126.6z"/>
        <path class="st0" d="M626.7,212.1c-30.1,0-54.1-23.9-54-53.7c0.1-29.4,24.4-53.7,53.8-53.8c29.6-0.1,53.9,24.2,53.9,54
		C680.4,188.4,656.6,212.1,626.7,212.1z M587.3,158.6c0,21.8,17.5,39.4,39.2,39.4c21.6,0,39.4-17.6,39.5-39.3
		c0.1-22-17.6-39.6-39.6-39.6C604.7,119.2,587.3,136.7,587.3,158.6z"/>
        <path class="st0" d="M411.2,158.4c0-15.6,0.1-31.3-0.1-46.9c0-3.5,0.9-4.5,4.4-4.4c8.8,0.3,17.6,0.2,26.5,0
		c2.9-0.1,4.1,0.6,4.1,3.8c-0.1,31.6-0.1,63.3,0,94.9c0,3.2-0.8,4.3-4.2,4.3c-8.8-0.2-17.6-0.2-26.5,0c-3.2,0.1-4.3-0.8-4.2-4.2
		C411.3,190.1,411.2,174.3,411.2,158.4z M426.5,158.3c0,11.8,0,23.6,0,35.4c0,1.5-0.8,3.6,2,3.6c2.9-0.1,1.9-2.3,1.9-3.7
		c0.1-23.5,0.1-46.9,0-70.4c0-1.4,1.1-3.7-1.7-3.8c-3.2-0.2-2.2,2.4-2.2,3.9C426.5,135,426.5,146.6,426.5,158.3z"/>
        <path class="st0"
              d="M129.5,155.4c-2.5,5.3-7,8.9-10.8,14.6c-0.7-6-0.5-10.8-0.3-15.6C122.2,154.1,125.9,153.7,129.5,155.4z"/>
        <path class="st0" d="M239.1,123.4c3,7.8,5.6,14.6,8.2,21.4c4.8,12.6,9.6,25.2,14.4,37.8c0.8,2.1,1.7,3.7-1.9,3.7
		c-13.7-0.1-27.3,0-41,0c-1,0-2-0.1-3.6-0.2C223.2,165.3,230.9,144.9,239.1,123.4z M232.1,178.1c4.2,0,7.7-0.1,11.2,0
		c2.2,0.1,2.7-0.6,1.9-2.6c-1.9-4.9-3.9-9.8-6.1-15.6C236.7,166.3,234.6,171.8,232.1,178.1z"/>
        <path class="st0" d="M591.3,158.4c0-19.4,16-35.2,35.4-35.2c19.3,0,35.3,15.9,35.5,35.3c0.2,19.2-16.5,35.8-35.8,35.5
		C606.9,193.8,591.2,177.8,591.3,158.4z M626.6,137.1c-12.1,0-21.5,9.4-21.4,21.5c0,11.9,9.7,21.6,21.5,21.6
		c11.7,0,21.6-10,21.5-21.7C648.1,146.5,638.6,137.1,626.6,137.1z"/>
</g>
</svg>
