<?xml version="1.0" encoding="utf-8"?>
<!-- Generator: Adobe Illustrator 22.0.1, SVG Export Plug-In . SVG Version: 6.00 Build 0)  -->
<svg version="1.1" id="Ebene_1" xmlns="http://www.w3.org/2000/svg" x="0px"
     y="0px"
     viewBox="0 0 338.7 282.2" style="enable-background:new 0 0 338.7 282.2;" xml:space="preserve">
<style type="text/css">
	.st0{fill:#AE3035;}
</style>
    <g>
	<path class="st0" d="M271,178.3c0-4.2,2.3-7.1,4.2-10.2c2.6-4.2,5.2-8.3,7.7-12.5c1.1-1.8,2.5-2.9,4.5-3.6c6.2-2,12.4-4.1,18.6-6.1
		c0.7-0.2,1.5-0.4,2.2-0.5c1.6-0.2,3,0.4,3.9,1.8c0.6,0.8,0.9,1.7,1.2,2.6c8.3,24.9,16.5,49.9,24.8,74.8c0.8,2.5,0.6,4.6-0.8,6.8
		c-3.4,5.2-6.6,10.5-9.8,15.8c-0.9,1.5-2.1,2.4-3.8,3c-5.9,2-11.9,4-17.8,5.9c-3.9,1.3-5.9,0.3-7.2-3.6c-3.3-9.9-6.6-19.8-9.8-29.7
		c-0.1-0.3-0.2-0.6-0.4-1.1c-1.4,2.3-2.9,4.4-4.2,6.7c-1.4,2.5-3.3,4.1-6,4.8c-0.8,0.2-0.8,0.5-0.6,1.2c1.1,3.2,2.1,6.4,3.2,9.7
		c0.7,2.1,0.6,4.1-0.7,6c-3.5,5.4-6.8,10.8-10.2,16.3c-0.8,1.3-1.9,2.2-3.4,2.7c-5.9,2-11.9,4-17.8,5.9c-3.6,1.2-5.6,0-6.9-3.8
		c-3.8-11.5-7.7-23.1-11.5-34.7c-4.4-13.4-8.9-26.8-13.3-40.2c-0.8-2.5-0.7-4.6,0.8-6.8c3.3-5.1,6.4-10.4,9.6-15.6
		c0.9-1.4,2-2.4,3.6-3c6.4-2.1,12.9-4.3,19.3-6.4c2.6-0.9,4.9-0.3,6.9,1.5c3.4,3.1,6.7,6.3,10.1,9.4
		C268.6,176.1,269.7,177.1,271,178.3z M297.2,193.2c0.3,0.8,0.5,1.3,0.6,1.8c4.3,13,8.6,26.1,13,39.1c1.1,3.2,2.6,4,5.8,2.9
		c5.9-1.9,11.8-3.8,17.6-5.8c3.4-1.1,4-2.5,3-5.9c0-0.2-0.1-0.3-0.2-0.4c-6.9-20.9-13.9-41.9-20.8-62.8c-1.4-4.2-2.7-8.4-4.2-12.6
		c-0.9-2.5-2.3-3.2-4.9-2.5c-0.3,0.1-0.7,0.2-1,0.3c-5.9,2-11.9,4-17.8,5.9c-2.8,0.9-4.3,2.7-4.7,5.4c-0.7,4-1.4,8-2.2,12
		c-0.7,3.8-1.4,7.7-2.1,11.5c-0.2,1-0.7,1.5-1.6,1.8c-1.1,0.4-2,0.1-2.8-0.6c-3.9-3.6-7.8-7.2-11.6-10.7c-2-1.8-4-3.7-6-5.5
		c-1.7-1.5-3.6-2.3-5.9-1.6c-6.5,2.1-13,4.3-19.5,6.5c-2.5,0.9-3.2,2.4-2.5,5c0.1,0.3,0.2,0.7,0.3,1c4.7,14.2,9.4,28.5,14.2,42.7
		c3.6,10.7,7.1,21.4,10.7,32.2c1.1,3.3,2.6,4,5.9,2.9c0.2,0,0.3-0.1,0.5-0.1c5.3-1.8,10.6-3.5,15.9-5.3c4-1.3,4.7-2.7,3.4-6.7
		c-4.3-12.9-8.5-25.8-12.8-38.6c-0.1-0.4-0.4-0.7-0.2-1.3c0.5,0.4,0.8,0.8,1.2,1.1c3.1,2.9,6.3,5.8,9.3,8.8c2.3,2.2,4.8,2.9,7.8,1.8
		c1.6-0.6,3.2-1,4.8-1.6c2.6-0.9,4.2-2.7,4.6-5.4C295.4,203.4,296.3,198.4,297.2,193.2z"/>
        <path class="st0" d="M73.8,175.7c2.6-1.6,5.4-2.1,8-3.1c4.3-1.5,8.6-2.9,12.9-4.4c1.8-0.6,3.6-0.7,5.4,0c6.3,2.4,12.6,4.9,18.8,7.4
		c3.3,1.4,3.7,3.7,1.1,6.4c-6.6,6.6-13.2,13.2-19.8,19.9c-1.1,1.1-1.1,1.1,0.2,2c6.5,4.3,8.9,11.9,6,19.8
		c-3.6,9.6-7.4,19.1-11.2,28.7c-0.7,1.7-1.4,3.4-2,5.1c-0.7,1.9-2,3-4,3.7c-6.2,2-12.4,4-18.5,6.1c-1.4,0.5-2.7,0.5-4.1,0
		c-6.2-2.4-12.4-4.8-18.5-7.3c-3.2-1.3-4-3.6-2.7-7.1c2.8-7.2,5.6-14.3,8.4-21.5c0.2-0.5,0.4-1,0.5-1.5c0.2-1,0.2-1.9-0.9-2.6
		c-0.4,1-0.8,1.9-1.2,2.9c-1.2,3.1-2.5,6.2-3.6,9.3c-0.8,2.2-2.2,3.6-4.6,4.3c-6,1.9-11.9,3.9-17.8,5.9c-1.7,0.6-3.3,0.5-5-0.1
		c-5.7-2.3-11.4-4.5-17.2-6.8c-4.1-1.6-5-3.7-3.4-7.8c7.2-18.3,14.4-36.7,21.6-55c2.4-6.1,4.8-12.2,7.2-18.3
		c0.9-2.4,2.4-3.9,4.9-4.7c5.9-1.9,11.7-3.9,17.5-5.9c1.6-0.6,3.1-0.6,4.7,0c6.1,2.4,12.3,4.8,18.4,7.2c3.3,1.3,4.2,3.5,2.9,6.8
		c-1.2,3.2-2.5,6.4-3.7,9.6C74,175,73.9,175.3,73.8,175.7z M96.9,203.4c0.4-0.4,0.6-0.7,1-1c6.9-6.9,13.8-13.7,20.7-20.6
		c0.5-0.4,0.9-0.9,1.3-1.4c0.9-1.3,0.6-2.4-0.7-3.3c-0.4-0.3-0.8-0.5-1.3-0.6c-5.8-2.3-11.6-4.5-17.4-6.8c-2.9-1.1-5.2-0.7-7.4,1.6
		c-6.4,6.5-12.9,12.9-19.4,19.3c-0.9,0.9-1.8,2.3-2.8,2.5c-1.1,0.2-2.4-0.8-3.7-1.2c-0.7-0.2-0.8-0.5-0.5-1.2
		c1.1-2.8,2.2-5.6,3.3-8.5c2.2-5.5,4.3-11,6.5-16.5c1.4-3.6,0.8-5-2.8-6.5c-0.1,0-0.1-0.1-0.2-0.1c-5.4-2.1-10.8-4.3-16.3-6.4
		c-3.9-1.5-5.2-0.9-6.7,2.9c-8,20.3-16,40.6-24,60.9c-1.7,4.2-3.4,8.5-5,12.7c-1,2.7-0.4,4.3,2.3,5.5c0.2,0.1,0.4,0.2,0.6,0.2
		c5.6,2.2,11.1,4.4,16.7,6.6c3.9,1.5,5.2,0.9,6.8-3c3.1-7.9,6.2-15.9,9.4-23.8c0.6-1.6,0.6-1.6,2.2-1c4.5,1.8,9,3.5,13.5,5.3
		c2.4,0.9,3.1,2.6,2.3,5c-0.1,0.4-0.3,0.8-0.4,1.1c-2.8,7.1-5.6,14.2-8.3,21.3c-1.3,3.3-0.6,4.8,2.6,6.1c5.7,2.3,11.5,4.5,17.3,6.8
		c3.1,1.2,4.6,0.5,5.9-2.6c1.2-2.9,2.3-5.9,3.5-8.8c3.2-8.2,6.5-16.3,9.6-24.5c2.1-5.6,1.5-11-2.5-15.7
		C101.1,205.7,99.1,204.5,96.9,203.4z"/>
        <path class="st0" d="M169.4,68.4c0.5,0,1,0.1,1.4,0.1c21.8,0,43.5,0,65.3,0c1.1,0,1.5,0.2,1.5,1.4c0,21.9,0,43.8,0,65.8
		c0,1.1-0.2,1.4-1.4,1.4c-21.8,0-43.7,0-65.5,0c-0.7,0-1.3,0.1-1.3-1c0-22.4,0-44.9,0-67.3C169.4,68.5,169.4,68.5,169.4,68.4
		L169.4,68.4z M203.1,119.8c3.8,0,7.7,0,11.5,0c0.9,0,1.1-0.3,1.1-1.1c0-6.6,0-13.1,0-19.7c0-0.8-0.2-1.1-1-1.1
		c-7.7,0-15.4,0-23.1,0c-0.9,0-1,0.3-1,1.1c0,6.6,0,13.2,0,19.8c0,0.9,0.3,1,1.1,1C195.4,119.8,199.3,119.8,203.1,119.8z M203,95.3
		C203,95.3,203,95.3,203,95.3c4,0,8,0.1,12,0c4.7-0.1,7-2.2,7.6-6.8c0.4-3.2,0.1-6.4,0.2-9.6c0-0.7-0.5-0.6-0.9-0.6
		c-2,0-4.1,0-6.1,0c-0.8,0-0.9,0.3-0.9,1c0,2,0,4,0,6c0,0.9-0.1,1.2-1.1,1.2c-1.9-0.1-3.8-0.1-5.6,0c-0.9,0-1.1-0.3-1.1-1.2
		c0.1-2,0-4.1,0-6.1c0-0.6-0.1-0.8-0.8-0.8c-2.1,0-4.2,0-6.4,0c-0.7,0-0.9,0.2-0.9,0.9c0,2,0,4,0,6c0,0.9-0.2,1.3-1.2,1.2
		c-1.8-0.1-3.7-0.1-5.5,0c-0.9,0-1.2-0.2-1.2-1.1c0.1-2,0-4.1,0-6.1c0-0.7-0.2-0.9-0.9-0.9c-2.1,0-4.2,0-6.2,0
		c-0.6,0-0.8,0.2-0.8,0.7c0,2.8-0.1,5.6,0.1,8.4c0.3,5.1,2.4,7.4,7.1,7.8c0.6,0.1,1.2,0,1.8,0C195.9,95.3,199.4,95.3,203,95.3z
		 M203.6,129.3c6.4,0,12.8,0,19.2,0c0.4,0,0.8,0.1,1-0.1c0.6-0.3,0.1-3-0.5-3.3c-2.1-0.9-4.3-1.7-6.4-2.7c-0.7-0.3-1.4-0.5-2.2-0.4
		c-6,0-12,0.2-18-0.1c-4.2-0.2-8.1,0.5-11.8,2.6c-1.3,0.7-1.9,1.3-1.8,2.8c0.1,0.9,0.3,1.1,1.2,1.1
		C190.8,129.3,197.2,129.3,203.6,129.3z"/>
        <path class="st0" d="M166.6,234.1c5.6-4.4,11-8.7,16.4-13c1.5-1.2,3.2-1.8,5.1-1.7c6.4,0.2,12.9,0.4,19.3,0.7
		c3.4,0.1,5.1,1.9,5,5.3c-0.2,8.8-0.5,17.6-0.8,26.4c-0.1,3.8-0.3,7.7-0.3,11.5c0,2.5-0.9,4.5-3,6c-5,3.7-10,7.6-14.9,11.5
		c-1.3,1-2.7,1.5-4.3,1.4c-10.8-0.4-21.6-0.7-32.4-1.1c-3.8-0.1-7.5-0.1-11.3-0.6c-6.9-0.9-13.3-3-18.2-8.4
		c-4.2-4.6-6.4-10.2-7.1-16.4c-0.6-5.2,0-10.3,0.1-15.5c0.2-8.7,0.5-17.3,0.9-26c0.2-4.4,1.1-8.6,3.1-12.4c1.4-2.6,3.2-4.8,5.5-6.6
		c5.2-4.1,10.4-8.2,15.6-12.3c4-3.2,8.6-4.6,13.5-5.4c5.2-0.8,10.4-0.5,15.7-0.4c8.5,0.3,16.9,0.6,25.4,0.9c0.5,0,1,0,1.6,0.1
		c2.9,0.5,4.3,1.8,4.3,4.7c0,5.7-0.2,11.4-0.5,17.1c-0.1,1.4-0.8,2.6-1.9,3.4c-5.4,4.2-10.9,8.4-16.3,12.6c-1.2,0.9-2.6,1.1-4.1,1.1
		c-4.9-0.2-9.8-0.3-14.6-0.5c-0.6,0-1.1-0.1-1.1,0.8C166.9,223,166.7,228.4,166.6,234.1z M137.7,223c0,0-0.1,0-0.1,0
		c0,1.4,0,2.9,0,4.3c-0.1,5.9-0.7,11.8-0.3,17.6c0.6,9.2,5,15.7,13.7,19.1c5.2,2,10.7,2.6,16.2,2.8c9.1,0.3,18.1,0.6,27.2,0.9
		c3.8,0.1,7.6,0.3,11.4,0.3c2.5,0,3.7-1,4-3.5c0.1-1,0.1-2.1,0.2-3.1c0.2-6.4,0.4-12.7,0.6-19.1c0.2-5.4,0.4-10.8,0.5-16.2
		c0.1-3.7-1-4.8-4.7-4.9c-1,0-1.9-0.1-2.9-0.1c-5.3-0.2-10.5-0.4-15.8-0.5c-3.1-0.1-4.3,1-4.5,4.1c-0.3,6.1-0.5,12.2-0.6,18.3
		c0,0.8-0.2,1-1,1c-3.6-0.2-7.2-0.2-10.8-0.4c-4.1-0.2-5.8-2.1-5.6-6.2c0.1-4.1,0.3-8.2,0.4-12.2c0.2-5.8,0.3-11.6,0.6-17.4
		c0.2-3.5,2-5.2,5.4-5.5c3.3-0.3,6.6,0.1,9.8,0.1c6.1,0.2,12.1,0.4,18.2,0.6c2.9,0.1,4.1-1.2,4.3-4c0.2-5,0.4-10,0.5-15
		c0.1-3.5-1.1-4.6-4.6-4.7c-0.2,0-0.5,0-0.7,0c-8.7-0.3-17.3-0.6-26-0.9c-5.2-0.2-10.3-0.3-15.4,0.6c-5,1-9.7,2.7-13.3,6.6
		c-4.1,4.3-5.6,9.7-5.9,15.5C138.1,208.4,138,215.7,137.7,223z"/>
        <path class="st0" d="M169.4,68.4c-0.4,0-0.8,0.1-1.2,0.1c-21.9,0-43.7,0-65.6,0c-1.1,0-1.4-0.2-1.4-1.4c0-22,0-43.9,0-65.9
		c0-1.1,0.3-1.3,1.3-1.3c21.9,0,43.7,0,65.6,0c1,0,1.2,0.2,1.2,1.2C169.4,23.6,169.4,46,169.4,68.4
		C169.4,68.4,169.4,68.4,169.4,68.4z M128.5,6.3c3.3,3.8,3.2,7.5-0.1,10.9c-0.5,0.5-1.1,1.1-1.6,1.6c-3.9,4-7.8,8-11.6,12.1
		c-2.6,2.7-2.8,6.2-0.7,9c2,2.8,5.4,3.6,8.8,2.1c1.7-0.8,3.2-1.8,4.8-2.7c1.1-0.7,2.3-1.3,3.5-1.7c1.8-0.5,3.4,0,4.2,1.4
		c0.8,1.4,0.5,3-0.9,4.2c-3.6,3.1-7.2,6.1-10.8,9.1c-2.3,2-3.4,4.6-3.7,7.6c-0.1,0.7,0.1,0.9,0.8,0.9c11.3,0,22.6,0,33.8,0
		c0.7,0,0.9-0.2,0.9-0.9c0-1.3-0.2-2.6,0.1-3.9c1.5-6.7,1.9-13.5,1.8-20.3c-0.2-10.7-4.9-19-13.8-24.9
		C139.3,7.8,134.1,6.4,128.5,6.3z"/>
        <path class="st0" d="M198.1,49.6c0.1-0.2,0.2-0.6,0.3-0.9c3.7-10.9,7.4-21.8,11-32.7c0.5-1.6,0.9-1.8,2.5-1.3
		c7.1,2.4,14.2,4.8,21.3,7.3c1.5,0.5,1.8,1,1.2,2.5c-3.7,10.9-7.4,21.8-11,32.7c-0.5,1.5-1,1.8-2.5,1.3c-7.1-2.4-14.3-4.9-21.4-7.3
		C198.7,50.9,198.1,50.6,198.1,49.6z"/>
        <path class="st0" d="M132.2,100.9c-3.1,0-5.4-0.9-7.7-1.6c-6-1.6-11.9-3.3-17.9-4.9c-1.1-0.3-2.3-0.6-2.6-1.9
		c-0.3-1.4,0.5-2.4,1.4-3.2c2.2-1.9,4.4-3.7,6.6-5.5c3.7-3,7.4-6,11-9.1c3-2.6,6.5-3.4,10.3-2.7c6.5,1.1,13,2.3,19.5,3.5
		c0.1,0,0.2,0,0.4,0.1c1.6,0.4,3,1.2,3.6,2.9c0.5,1.6-0.5,2.8-1.5,3.8c-4.5,4.5-9,8.9-13.4,13.4c-1.4,1.4-2.9,2.8-4.6,3.8
		C135.5,100.3,133.7,100.9,132.2,100.9z M128.7,88.6c2.8-0.1,5.4-0.7,7.4-2.8c1.4-1.5,0.9-3.2-1-3.8c-2.6-0.9-7.4,0.5-9.1,2.6
		c-0.3,0.3-0.5,0.6-0.7,1c-0.6,1.3-0.2,2.4,1.2,2.8C127.2,88.6,127.9,88.6,128.7,88.6z"/>
        <path class="st0" d="M166.6,106.9c0,3.1-1,5.7-2.9,8.1c-4.6,5.6-9.3,11.2-14,16.7c-1.6,1.9-3.6,1.8-5.1-0.3c-0.7-1-1.1-2-1.4-3.1
		c-1.8-6.4-3.6-12.7-5.4-19.1c-1.1-3.8-0.3-7.1,2.4-9.8c5.5-5.6,11.1-11.1,16.7-16.6c2.1-2.1,4.8-1.4,5.6,1.6
		c0.6,2.1,0.9,4.2,1.3,6.3c0.9,4.8,1.8,9.6,2.6,14.4C166.5,105.6,166.5,106.2,166.6,106.9z M148.3,103.5c0-0.2,0-0.4,0-0.6
		c-0.2-1.3-0.4-2.7-1.9-3.2c-1.4-0.4-2.3,0.6-3.1,1.5c-1.7,2.1-2.3,4.5-2,7.1c0.2,1.1,0.5,2.3,1.7,2.6c1.2,0.4,2.2-0.2,3.1-1.1
		C147.7,108.1,148.1,105.8,148.3,103.5z M156.3,105.6c0-0.5,0-0.9-0.1-1.3c-0.2-1-0.6-1.9-1.7-2.3c-1.1-0.3-1.8,0.4-2.4,1.2
		c-1.6,2.1-2.4,4.5-2,7.2c0.2,0.9,0.3,1.9,1.4,2.2c1.1,0.3,1.9-0.3,2.6-1.1C155.6,109.8,156.2,107.7,156.3,105.6z M145.9,124.5
		c0,0.2,0,0.5,0,0.7c0.1,1,0.2,2.1,1.2,2.5c1.1,0.5,2.1-0.2,2.7-1c1.8-2.1,2.7-4.6,2.3-7.4c-0.1-0.9-0.6-1.7-1.5-2
		c-1-0.3-1.7,0.2-2.3,0.9C146.8,120.1,145.9,122.1,145.9,124.5z M154.2,93.3c0,0.9,0,1.7,0.3,2.4c0.6,1.9,2,2.3,3.5,1
		c1.9-1.7,2.9-6.3,1.8-8.6c-0.8-1.7-2.3-2-3.5-0.5C155,89.3,154.2,91.3,154.2,93.3z M163.5,107.2c0-0.4,0-0.8-0.1-1.2
		c-0.2-0.8-0.5-1.7-1.4-1.9c-0.9-0.2-1.4,0.4-1.9,1c-1.6,1.9-2.5,4.1-2.2,6.6c0.1,0.9,0.2,1.9,1.3,2.3c1.1,0.4,1.9-0.3,2.6-1.1
		C163,111.2,163.4,109.3,163.5,107.2z"/>
        <path class="st0" d="M138.4,134.4c-1.3,0-2.5-0.3-3.6-0.8c-6-2.4-12-4.8-18-7.2c-2.7-1.1-4.2-3.2-5.2-5.7
		c-2.8-6.8-5.5-13.6-8.2-20.4c-0.3-0.9-0.6-1.8-0.5-2.8c0.1-1.3,0.7-1.8,1.9-1.7c0.3,0,0.6,0.1,0.9,0.2c7.8,2.2,15.5,4.4,23.3,6.5
		c3.4,0.9,5.5,2.9,6.5,6.3c2.1,7.3,4.3,14.6,6.4,21.9C142.6,133.1,141.3,134.5,138.4,134.4z M131.2,114.3c1.7,0,2.6-1.3,1.8-3.1
		c-0.8-1.9-2.1-3.6-3.7-4.9c-1-0.7-2-1.3-3.3-1.2c-1.7,0.1-2.6,1.2-2,2.8c0.9,2.7,2.7,4.8,5.4,6
		C129.9,114.1,130.5,114.3,131.2,114.3z M107.5,101.7c0,2.5,3,5.9,5.8,6.8c0.7,0.2,1.4,0.3,2-0.3c0.6-0.6,0.7-1.3,0.4-2.1
		c-0.9-2.5-2.5-4.5-4.8-5.8c-0.4-0.3-1-0.4-1.5-0.5C108.3,99.8,107.5,100.6,107.5,101.7z M138.3,129.2c0-2.8-4.1-6.7-6.8-6.8
		c-1.3,0-2.1,0.9-1.8,2.2c0.5,2.6,4.3,5.9,6.9,6.2C137.6,130.9,138.3,130.3,138.3,129.2z M121.7,122.9c0-0.1,0-0.3-0.1-0.5
		c-1.1-2.7-2.9-4.6-5.6-5.7c-0.3-0.1-0.7-0.1-1.1-0.1c-0.9,0.1-1.3,0.7-1.2,1.6c0.2,2.4,4,6.1,6.3,6.2
		C121.1,124.5,121.7,124,121.7,122.9z"/>
        <path class="st0" d="M190.3,28.1c0-5.8,0-11.5,0-17.3c0-1.7,0.3-2,1.9-2c7.4,0,14.9,0,22.3,0c1.9,0,2.1,0.3,2.1,2.1
		c0,1.9,0,1.9-1.8,1.3c-0.8-0.3-1.5-0.5-2.3-0.8c-2.9-0.9-5.3,0.2-6.3,3.1c-2,5.9-4,11.9-6,17.8c-1.6,4.6-3.2,9.3-4.7,13.9
		c-0.2,0.7-0.5,1-1.3,1c-0.8-0.1-1.5,0-2.3,0c-1.4,0-1.8-0.4-1.8-1.8C190.3,39.7,190.3,33.9,190.3,28.1z"/>
        <path class="st0" d="M198,54.3c-4.2,1.5-8.2,3-12.2,4.4c-1,0.4-1.5-0.4-1.8-1.3c-1.4-3.9-2.8-7.7-4.2-11.6
		c-2.5-6.9-5-13.9-7.5-20.8c-0.6-1.7-0.4-2.2,1.3-2.8c4.1-1.5,8.2-2.9,12.3-4.4c0.9-0.3,1-0.2,1,0.7c0,8.9,0,17.8,0,26.6
		c0,3.7,1.8,5.5,5.5,5.5c0.2,0,0.4,0,0.6,0c1.2-0.2,2,0.1,2.4,1.4C195.7,53.1,196.8,53.7,198,54.3z"/>
        <path class="st0" d="M250.3,177.6c1.1-0.1,2,0.6,2.8,1.3c7.4,5.8,14.7,11.7,22.1,17.5c0.6,0.5,1.3,0.9,1.9,1.4
		c2.4,2.3,7.2,0.5,8-2.6c1.7-6.5,3.4-13,5.2-19.4c1-3.5,1.9-7.1,2.8-10.6c0.4-1.6,1.4-2.6,2.9-3.1c0.6-0.2,1.2-0.4,1.8-0.6
		c2.1-0.6,3.3-0.1,4.1,1.9c0.7,1.7,1.2,3.5,1.8,5.2c5.9,17.8,11.8,35.7,17.7,53.5c0.1,0.2,0.1,0.5,0.2,0.7c0.2,0.5,0.1,0.7-0.4,0.9
		c-0.5,0.2-0.6-0.1-0.7-0.5c-0.3-1.1-0.7-2.2-1.1-3.3c-6-18.2-12.1-36.4-18.1-54.7c-0.1-0.4-0.3-0.8-0.5-1.2
		c-0.6-1.4-1.4-1.8-2.9-1.3c-0.5,0.1-1,0.3-1.5,0.5c-1.2,0.4-1.8,1.1-2.1,2.3c-2.5,9.3-5.1,18.6-7.6,28c-0.2,0.8-0.6,1.6-0.7,2.4
		c-0.6,3.6-6.4,5.4-9.2,3.2c-5.2-4-10.4-8.1-15.6-12.2c-3.1-2.4-6.1-4.8-9.2-7.2c-1.4-1.1-4.7-0.9-5.9,0.4c-0.8,0.9-0.4,1.9-0.1,2.8
		c1.3,4.1,2.7,8.2,4.1,12.3c5.1,15.3,10.1,30.5,15.2,45.8c0.1,0.3,0.5,0.8,0.1,1.1c-0.6,0.5-1,0.3-1.3-0.5
		c-1.7-5.4-3.5-10.8-5.3-16.1c-4.6-14-9.3-28-13.9-41.9c-0.2-0.5-0.3-1-0.4-1.5c-0.3-1.9,0.2-2.9,2.1-3.6
		C247.8,178.1,248.9,177.6,250.3,177.6z"/>
        <path class="st0" d="M101.1,182c-8.4,8.3-16.8,16.5-25.5,25c2.3,0.9,4.1,1.6,5.9,2.4c2.1,0.9,4.1,2,5.9,3.4c3.7,3.1,4.8,7,2.9,12
		c-2.3,6.2-4.8,12.3-7.2,18.5c-0.2,0.6-0.4,1.1-0.7,1.7c-0.2,0.4-0.2,0.9-0.9,0.6c-0.8-0.3-0.4-0.7-0.3-1.1
		c2.4-6.2,4.9-12.4,7.3-18.6c0.8-2,1.4-4.1,1.3-6.3c-0.2-2.7-1.7-4.6-3.7-6.2c-2-1.6-4.2-2.6-6.5-3.5c-9.8-3.8-19.5-7.7-29.3-11.5
		c-0.9-0.4-1.2-0.1-1.5,0.7c-3.7,9.4-7.3,18.7-11,28.1c-0.1,0.3-0.1,1-0.7,0.9c-0.9-0.1-0.7-0.7-0.5-1.3c2.5-6.3,5-12.6,7.5-18.9
		c5.3-13.6,10.7-27.1,16-40.7c0.1-0.1,0.1-0.3,0.2-0.4c0.2-0.4,0.3-0.9,0.9-0.6c0.6,0.2,0.4,0.6,0.3,1c-1.7,4.2-3.3,8.5-5,12.7
		c-2.1,5.3-4.2,10.7-6.3,16c-0.3,0.7-0.2,1,0.5,1.3c7.7,3,15.4,6,23.1,9.1c0.8,0.3,1.2,0,1.7-0.5c7.8-7.9,15.7-15.8,23.5-23.7
		C99.6,181.5,100.2,181.2,101.1,182z"/>
        <path class="st0" d="M152.4,222.8c-0.2,6-0.3,11.9-0.5,17.9c0,1.3,0.1,2.6,0.4,3.8c0.9,4.4,3.4,7.2,7.7,8.5c3.3,1,6.7,1.5,10.2,1.6
		c8.1,0.3,16.3,0.5,24.5,0.8c0.9,0,1.1-0.2,1.1-1.1c0.2-7.2,0.5-14.3,0.7-21.5c0-0.4-0.2-0.9,0.5-0.9c0.8,0,0.7,0.5,0.7,0.9
		c-0.3,7.7-0.5,15.3-0.7,23c0,0.6-0.2,0.8-0.9,0.8c-9.8-0.5-19.7-0.4-29.5-1.2c-2.4-0.2-4.7-0.6-7-1.3c-5.8-1.9-8.4-5.3-8.7-11.4
		c-0.2-5.2,0.2-10.5,0.3-15.7c0.2-6.8,0.4-13.7,0.7-20.5c0.1-2.2,0.2-4.5,0.6-6.7c1.3-6.3,4.5-9.2,10.9-10.1
		c5.2-0.7,10.4-0.3,15.6-0.2c4.4,0.1,8.9,0.3,13.3,0.4c0.1,0,0.2,0,0.4,0c0.5,0,0.7,0.1,0.7,0.7c0,0.6-0.3,0.6-0.8,0.6
		c-4.6-0.2-9.1-0.3-13.7-0.4c-4.2-0.1-8.5-0.4-12.7-0.1c-1.6,0.1-3.2,0.4-4.7,0.8c-4,1-6.4,3.6-7.5,7.6c-0.7,2.6-0.8,5.2-0.9,7.8
		C152.7,212.3,152.6,217.6,152.4,222.8C152.4,222.8,152.4,222.8,152.4,222.8z"/>
        <path class="st0" d="M131.5,20.6c1.3,0,2.4,1.1,2.3,2.4c0,1.3-1.2,2.4-2.5,2.3c-1.3-0.1-2.3-1.1-2.2-2.4
		C129.1,21.5,130.2,20.6,131.5,20.6z"/>
</g>
</svg>
